<?xml version="1.0" encoding="UTF-8" standalone="no"?>
<!-- Created with Inkscape (http://www.inkscape.org/) -->

<svg
   xmlns:dc="http://purl.org/dc/elements/1.1/"
   xmlns:cc="http://creativecommons.org/ns#"
   xmlns:rdf="http://www.w3.org/1999/02/22-rdf-syntax-ns#"
   xmlns:svg="http://www.w3.org/2000/svg"
   xmlns="http://www.w3.org/2000/svg"
   xmlns:sodipodi="http://sodipodi.sourceforge.net/DTD/sodipodi-0.dtd"
   xmlns:inkscape="http://www.inkscape.org/namespaces/inkscape"
   version="1.1"
   width="380"
   height="380"
   id="svg2"
   sodipodi:docname="favicon.svg"
   inkscape:version="0.92.2 5c3e80d, 2017-08-06">
  <sodipodi:namedview
     pagecolor="#ffffff"
     bordercolor="#666666"
     borderopacity="1"
     objecttolerance="10"
     gridtolerance="10"
     guidetolerance="10"
     inkscape:pageopacity="0"
     inkscape:pageshadow="2"
     inkscape:window-width="1416"
     inkscape:window-height="765"
     id="namedview27"
     showgrid="false"
     fit-margin-top="0.57918"
     fit-margin-left="1.27939"
     fit-margin-right="1.27939"
     fit-margin-bottom="0.57918"
     inkscape:zoom="0.5"
     inkscape:cx="282.89209"
     inkscape:cy="191.09934"
     inkscape:window-x="0"
     inkscape:window-y="0"
     inkscape:window-maximized="0"
     inkscape:current-layer="svg2" />
  <title
     id="title3852">KIIT Seal</title>
  <metadata
     id="metadata8">
    <rdf:RDF>
      <cc:Work
         rdf:about="">
        <dc:format>image/svg+xml</dc:format>
        <dc:type
           rdf:resource="http://purl.org/dc/dcmitype/StillImage" />
        <dc:title>KIIT Seal</dc:title>
      </cc:Work>
    </rdf:RDF>
  </metadata>
  <defs
     id="defs6" />
  <g
     transform="translate(-4.0793672,52.7498)"
     id="g3841"
     style="fill:#17d059;fill-opacity:1">
    <path
       d="m 14.5,194.5 10,26 47.5,-16 -12.5,-34 z"
       id="path3782"
       style="fill:#17d059;fill-opacity:1;stroke:none"
       inkscape:connector-curvature="0" />
    <path
       d="M 49.904509,261.29817 68.21233,281.23556 107.85541,245.75242 83.178769,218.85869 Z"
       id="path3784"
       style="fill:#17d059;fill-opacity:1;stroke:none"
       inkscape:connector-curvature="0" />
    <path
       d="m 108.5824,307.09228 23.02993,10.49581 25.26039,-49.41713 -31.53205,-13.46868 z"
       id="path3786"
       style="fill:#17d059;fill-opacity:1;stroke:none"
       inkscape:connector-curvature="0" />
    <path
       d="m 181.45411,326.40315 25.55745,0.26787 4.4745,-55.92894 -33.92636,-0.0204 z"
       id="path3788"
       style="fill:#17d059;fill-opacity:1;stroke:none"
       inkscape:connector-curvature="0" />
    <path
       d="m 258.8061,318.81747 22.93039,-10.75132 -15.42691,-52.43803 -31.08734,14.34063 z"
       id="path3790"
       style="fill:#17d059;fill-opacity:1;stroke:none"
       inkscape:connector-curvature="0" />
    <path
       d="m 322.52496,279.5888 17.39476,-20.1945 -31.44288,-41.20846 -24.85371,26.35419 z"
       id="path3792"
       style="fill:#17d059;fill-opacity:1;stroke:none"
       inkscape:connector-curvature="0" />
    <path
       d="m 366.77326,219.33833 9.61598,-25.01809 -44.54572,-24.53683 -13.76755,34.6037 z"
       id="path3794"
       style="fill:#17d059;fill-opacity:1;stroke:none"
       inkscape:connector-curvature="0" />
    <path
       d="m 333.12572,155.58548 49.67425,-5.83363 v -14.67247 h -49.14392 z"
       id="path3796"
       style="fill:#17d059;fill-opacity:1;stroke:none"
       inkscape:connector-curvature="0" />
    <path
       d="m 5.3587572,149.50185 49.6742518,5.83363 v -20.5061 H 5.3587572 Z"
       id="path3798"
       style="fill:#17d059;fill-opacity:1;stroke:none"
       inkscape:connector-curvature="0" />
  </g>
  <g
     transform="translate(-4.0793672,52.7498)"
     id="g3836">
    <path
       d="m 276,85 a 142,142 0 1 1 -284,-7e-6"
       transform="matrix(0.97573489,0,0,0.97573489,61.805879,52.062535)"
       id="path3813"
       style="fill:none;stroke:#17d059;stroke-width:10;stroke-linecap:butt;stroke-linejoin:round;stroke-miterlimit:4;stroke-dasharray:none;stroke-dashoffset:0;stroke-opacity:1"
       inkscape:connector-curvature="0" />
    <path
       d="m 276,85 a 142,142 0 1 1 -284,-7e-6"
       transform="matrix(0.79050408,0,0,0.79050408,89.074032,68.057152)"
       id="path3815"
       style="fill:none;stroke:#17d059;stroke-width:12.65015602;stroke-linecap:butt;stroke-linejoin:round;stroke-miterlimit:4;stroke-dasharray:none;stroke-dashoffset:0;stroke-opacity:1"
       inkscape:connector-curvature="0" />
    <path
       d="m 276,85 a 142,142 0 1 1 -284,-7e-6"
       transform="matrix(0.6346358,0,0,0.6346358,110.07709,82.055955)"
       id="path3817"
       style="fill:none;stroke:#17d059;stroke-width:15.75706863;stroke-linecap:butt;stroke-linejoin:round;stroke-miterlimit:4;stroke-dasharray:none;stroke-dashoffset:0;stroke-opacity:1"
       inkscape:connector-curvature="0" />
  </g>
  <g
     style="fill:#17d059;fill-opacity:1"
     id="g433"
     transform="matrix(1,0,0,-1,-4.0793672,327.2502)">
    <path
       style="fill:#17d059;fill-opacity:1;stroke:none"
       id="path415"
       d="m 14.5,194.5 10,26 47.5,-16 -12.5,-34 z"
       inkscape:connector-curvature="0" />
    <path
       style="fill:#17d059;fill-opacity:1;stroke:none"
       id="path417"
       d="M 49.904509,261.29817 68.21233,281.23556 107.85541,245.75242 83.178769,218.85869 Z"
       inkscape:connector-curvature="0" />
    <path
       style="fill:#17d059;fill-opacity:1;stroke:none"
       id="path419"
       d="m 108.5824,307.09228 23.02993,10.49581 25.26039,-49.41713 -31.53205,-13.46868 z"
       inkscape:connector-curvature="0" />
    <path
       style="fill:#17d059;fill-opacity:1;stroke:none"
       id="path421"
       d="m 181.45411,326.40315 25.55745,0.26787 4.4745,-55.92894 -33.92636,-0.0204 z"
       inkscape:connector-curvature="0" />
    <path
       style="fill:#17d059;fill-opacity:1;stroke:none"
       id="path423"
       d="m 258.8061,318.81747 22.93039,-10.75132 -15.42691,-52.43803 -31.08734,14.34063 z"
       inkscape:connector-curvature="0" />
    <path
       style="fill:#17d059;fill-opacity:1;stroke:none"
       id="path425"
       d="m 322.52496,279.5888 17.39476,-20.1945 -31.44288,-41.20846 -24.85371,26.35419 z"
       inkscape:connector-curvature="0" />
    <path
       style="fill:#17d059;fill-opacity:1;stroke:none"
       id="path427"
       d="m 366.77326,219.33833 9.61598,-25.01809 -44.54572,-24.53683 -13.76755,34.6037 z"
       inkscape:connector-curvature="0" />
    <path
       style="fill:#17d059;fill-opacity:1;stroke:none"
       id="path429"
       d="m 333.12572,155.58548 49.67425,-5.83363 v -14.67247 h -49.14392 z"
       inkscape:connector-curvature="0" />
    <path
       style="fill:#17d059;fill-opacity:1;stroke:none"
       id="path431"
       d="m 5.3587572,149.50185 49.6742518,5.83363 v -20.5061 H 5.3587572 Z"
       inkscape:connector-curvature="0" />
  </g>
  <g
     id="g441"
     transform="matrix(1,0,0,-1,-4.0793672,327.2502)">
    <path
       style="fill:none;stroke:#17d059;stroke-width:10;stroke-linecap:butt;stroke-linejoin:round;stroke-miterlimit:4;stroke-dasharray:none;stroke-dashoffset:0;stroke-opacity:1"
       id="path435"
       transform="matrix(0.97573489,0,0,0.97573489,61.805879,52.062535)"
       d="m 276,85 a 142,142 0 1 1 -284,-7e-6"
       inkscape:connector-curvature="0" />
    <path
       style="fill:none;stroke:#17d059;stroke-width:12.65015602;stroke-linecap:butt;stroke-linejoin:round;stroke-miterlimit:4;stroke-dasharray:none;stroke-dashoffset:0;stroke-opacity:1"
       id="path437"
       transform="matrix(0.79050408,0,0,0.79050408,89.074032,68.057152)"
       d="m 276,85 a 142,142 0 1 1 -284,-7e-6"
       inkscape:connector-curvature="0" />
    <path
       style="fill:none;stroke:#17d059;stroke-width:15.75706863;stroke-linecap:butt;stroke-linejoin:round;stroke-miterlimit:4;stroke-dasharray:none;stroke-dashoffset:0;stroke-opacity:1"
       id="path439"
       transform="matrix(0.6346358,0,0,0.6346358,110.07709,82.055955)"
       d="m 276,85 a 142,142 0 1 1 -284,-7e-6"
       inkscape:connector-curvature="0" />
  </g>
</svg>
