<?xml version="1.0" encoding="UTF-8" standalone="no"?>
<!-- Created with Inkscape (http://www.inkscape.org/) -->

<svg
   xmlns:dc="http://purl.org/dc/elements/1.1/"
   xmlns:cc="http://creativecommons.org/ns#"
   xmlns:rdf="http://www.w3.org/1999/02/22-rdf-syntax-ns#"
   xmlns:svg="http://www.w3.org/2000/svg"
   xmlns="http://www.w3.org/2000/svg"
   xmlns:sodipodi="http://sodipodi.sourceforge.net/DTD/sodipodi-0.dtd"
   xmlns:inkscape="http://www.inkscape.org/namespaces/inkscape"
   version="1.1"
   width="420"
   height="420"
   id="svg2"
   sodipodi:docname="fosskiit-base.svg"
   inkscape:version="0.92.2 5c3e80d, 2017-08-06">
  <sodipodi:namedview
     pagecolor="#ffffff"
     bordercolor="#666666"
     borderopacity="1"
     objecttolerance="10"
     gridtolerance="10"
     guidetolerance="10"
     inkscape:pageopacity="0"
     inkscape:pageshadow="2"
     inkscape:window-width="1440"
     inkscape:window-height="797"
     id="namedview27"
     showgrid="false"
     fit-margin-top="20.013685"
     fit-margin-left="21.27939"
     fit-margin-right="21.27939"
     fit-margin-bottom="20.01368"
     inkscape:snap-grids="true"
     inkscape:measure-start="42.4166,343.075"
     inkscape:measure-end="153.448,361.789"
     inkscape:zoom="0.5"
     inkscape:cx="37.438927"
     inkscape:cy="29.210713"
     inkscape:window-x="0"
     inkscape:window-y="1"
     inkscape:window-maximized="1"
     inkscape:current-layer="svg2"
     inkscape:pagecheckerboard="false"
     inkscape:showpageshadow="true"
     showborder="true"
     showguides="true"
     inkscape:snap-to-guides="true"
     inkscape:guide-bbox="true">
    <sodipodi:guide
       position="329.05186,303.71722"
       orientation="1,0"
       id="guide31"
       inkscape:locked="false" />
    <sodipodi:guide
       position="106.9028,304.2073"
       orientation="1,0"
       id="guide33"
       inkscape:locked="false" />
  </sodipodi:namedview>
  <title
     id="title3852">KIIT Seal</title>
  <metadata
     id="metadata8">
    <rdf:RDF>
      <cc:Work
         rdf:about="">
        <dc:format>image/svg+xml</dc:format>
        <dc:type
           rdf:resource="http://purl.org/dc/dcmitype/StillImage" />
        <dc:title>KIIT Seal</dc:title>
      </cc:Work>
    </rdf:RDF>
  </metadata>
  <defs
     id="defs6" />
  <g
     transform="translate(15.920633,73.315306)"
     id="g3841"
     style="fill:#17d059;fill-opacity:1">
    <path
       d="m 14.5,194.5 10,26 47.5,-16 -12.5,-34 z"
       id="path3782"
       style="fill:#17d059;fill-opacity:1;stroke:none"
       inkscape:connector-curvature="0" />
    <path
       d="M 49.904509,261.29817 68.21233,281.23556 107.85541,245.75242 83.178769,218.85869 Z"
       id="path3784"
       style="fill:#17d059;fill-opacity:1;stroke:none"
       inkscape:connector-curvature="0" />
    <path
       d="m 108.5824,307.09228 23.02993,10.49581 25.26039,-49.41713 -31.53205,-13.46868 z"
       id="path3786"
       style="fill:#17d059;fill-opacity:1;stroke:none"
       inkscape:connector-curvature="0" />
    <path
       d="m 181.45411,326.40315 25.55745,0.26787 4.4745,-55.92894 -33.92636,-0.0204 z"
       id="path3788"
       style="fill:#17d059;fill-opacity:1;stroke:none"
       inkscape:connector-curvature="0" />
    <path
       d="m 258.8061,318.81747 22.93039,-10.75132 -15.42691,-52.43803 -31.08734,14.34063 z"
       id="path3790"
       style="fill:#17d059;fill-opacity:1;stroke:none"
       inkscape:connector-curvature="0" />
    <path
       d="m 322.52496,279.5888 17.39476,-20.1945 -31.44288,-41.20846 -24.85371,26.35419 z"
       id="path3792"
       style="fill:#17d059;fill-opacity:1;stroke:none"
       inkscape:connector-curvature="0" />
    <path
       d="m 366.77326,219.33833 9.61598,-25.01809 -44.54572,-24.53683 -13.76755,34.6037 z"
       id="path3794"
       style="fill:#17d059;fill-opacity:1;stroke:none"
       inkscape:connector-curvature="0" />
    <path
       d="m 333.12572,155.58548 49.67425,-5.83363 v -14.67247 h -49.14392 z"
       id="path3796"
       style="fill:#17d059;fill-opacity:1;stroke:none"
       inkscape:connector-curvature="0" />
    <path
       d="m 5.3587572,149.50185 49.6742518,5.83363 v -20.5061 H 5.3587572 Z"
       id="path3798"
       style="fill:#17d059;fill-opacity:1;stroke:none"
       inkscape:connector-curvature="0" />
  </g>
  <g
     transform="translate(15.920633,73.315306)"
     id="g3836">
    <path
       d="m 276,85 a 142,142 0 1 1 -284,-7e-6"
       transform="matrix(0.97573489,0,0,0.97573489,61.805879,52.062535)"
       id="path3813"
       style="fill:none;stroke:#17d059;stroke-width:10;stroke-linecap:butt;stroke-linejoin:round;stroke-miterlimit:4;stroke-dasharray:none;stroke-dashoffset:0;stroke-opacity:1"
       inkscape:connector-curvature="0" />
    <path
       d="m 276,85 a 142,142 0 1 1 -284,-7e-6"
       transform="matrix(0.79050408,0,0,0.79050408,89.074032,68.057152)"
       id="path3815"
       style="fill:none;stroke:#17d059;stroke-width:12.65015602;stroke-linecap:butt;stroke-linejoin:round;stroke-miterlimit:4;stroke-dasharray:none;stroke-dashoffset:0;stroke-opacity:1"
       inkscape:connector-curvature="0" />
    <path
       d="m 276,85 a 142,142 0 1 1 -284,-7e-6"
       transform="matrix(0.6346358,0,0,0.6346358,110.07709,82.055955)"
       id="path3817"
       style="fill:none;stroke:#17d059;stroke-width:15.75706863;stroke-linecap:butt;stroke-linejoin:round;stroke-miterlimit:4;stroke-dasharray:none;stroke-dashoffset:0;stroke-opacity:1"
       inkscape:connector-curvature="0" />
  </g>
  <g
     transform="translate(15.920633,73.315306)"
     id="g3823">
    <path
       d="M 141.45867,42.25 122.48254,76.390812 V 42.477416 H 90.982171 V 142.76783 h 31.500369 v -30.92856 l 15.1809,30.47373 h 35.80163 L 149.80816,91.940374 177.89283,42.25 Z m 4.17474,8.186973 h 20.49422 l -24.28944,42.526773 20.49422,41.844524 H 142.85025 L 122.10302,92.736331 Z m -46.206863,0.08528 H 115.42975 V 135.17783 H 99.426547 Z"
       id="path2987"
       style="fill:#17d059;fill-opacity:1;stroke:none"
       inkscape:connector-curvature="0" />
    <path
       d="m 212.5,30 a 16.75,16.75 0 1 1 -33.5,0 16.75,16.75 0 1 1 33.5,0 z"
       transform="translate(-5.25,29.75)"
       id="path3767"
       style="fill:#17d059;fill-opacity:1;stroke:none"
       inkscape:connector-curvature="0" />
    <path
       d="M 175.75,78.362219 V 142.25 H 207 V 78.362219 Z m 8.3125,7.545367 h 15.625 v 49.237654 h -15.625 z"
       id="path3771"
       style="fill:#17d059;fill-opacity:1;stroke:none"
       inkscape:connector-curvature="0" />
    <path
       d="m 247.49558,42.9675 v 30.332469 h 18.61514 l -0.36695,67.388411 h 30.24381 V 73.299969 h 17.14365 V 42.9675 Z m 8.92301,7.548547 h 50.25622 v 14.663761 h -17.75 V 133.47608 H 273.79359 V 65.179808 l -17.375,-0.222067 z"
       id="path3780"
       style="fill:#17d059;fill-opacity:1;stroke:none"
       inkscape:connector-curvature="0" />
    <path
       d="m 212.5,30 a 16.75,16.75 0 1 1 -33.5,0 16.75,16.75 0 1 1 33.5,0 z"
       transform="translate(30.75,29.75)"
       id="path3819"
       style="fill:#17d059;fill-opacity:1;stroke:none"
       inkscape:connector-curvature="0" />
    <path
       d="M 211.75,78.362219 V 142.25 H 243 V 78.362219 Z m 8.3125,7.545367 h 15.625 v 49.237654 h -15.625 z"
       id="path3821"
       style="fill:#17d059;fill-opacity:1;stroke:none"
       inkscape:connector-curvature="0" />
  </g>
  <rect
     style="fill:#17d059;fill-opacity:1;stroke-width:1.27186394"
     id="rect4537"
     width="222.12341"
     height="76"
     x="106.92994"
     y="20.013685"
     ry="15.396348" />
  <text
     xml:space="preserve"
     style="font-style:normal;font-variant:normal;font-weight:bold;font-stretch:normal;font-size:64px;line-height:125%;font-family:sans-serif;-inkscape-font-specification:'sans-serif, Bold';font-variant-ligatures:normal;font-variant-caps:normal;font-variant-numeric:normal;font-feature-settings:normal;text-align:start;letter-spacing:0px;word-spacing:0px;writing-mode:lr-tb;text-anchor:start;fill:#ffffff;fill-opacity:1;stroke:none;stroke-width:1px;stroke-linecap:butt;stroke-linejoin:miter;stroke-opacity:0"
     x="125.49185"
     y="81.089592"
     id="text4541"><tspan
       sodipodi:role="line"
       id="tspan4543"
       x="125.49185"
       y="81.089592"
       style="font-style:normal;font-variant:normal;font-weight:bold;font-stretch:normal;font-size:64px;font-family:sans-serif;-inkscape-font-specification:'sans-serif, Bold';font-variant-ligatures:normal;font-variant-caps:normal;font-variant-numeric:normal;font-feature-settings:normal;text-align:start;writing-mode:lr-tb;text-anchor:start">FOSS</tspan></text>
</svg>
