<?xml version="1.0" encoding="UTF-8" standalone="no"?>
<!-- Created with Inkscape (http://www.inkscape.org/) -->

<svg
   xmlns:dc="http://purl.org/dc/elements/1.1/"
   xmlns:cc="http://creativecommons.org/ns#"
   xmlns:rdf="http://www.w3.org/1999/02/22-rdf-syntax-ns#"
   xmlns:svg="http://www.w3.org/2000/svg"
   xmlns="http://www.w3.org/2000/svg"
   xmlns:sodipodi="http://sodipodi.sourceforge.net/DTD/sodipodi-0.dtd"
   xmlns:inkscape="http://www.inkscape.org/namespaces/inkscape"
   version="1.1"
   width="420"
   height="420"
   id="svg2"
   sodipodi:docname="fosskiit-base.svg"
   inkscape:version="0.92.2 5c3e80d, 2017-08-06">
  <sodipodi:namedview
     pagecolor="#ffffff"
     bordercolor="#666666"
     borderopacity="1"
     objecttolerance="10"
     gridtolerance="10"
     guidetolerance="10"
     inkscape:pageopacity="0"
     inkscape:pageshadow="2"
     inkscape:window-width="1440"
     inkscape:window-height="797"
     id="namedview27"
     showgrid="false"
     fit-margin-top="20.013685"
     fit-margin-left="21.27939"
     fit-margin-right="21.27939"
     fit-margin-bottom="20.01368"
     inkscape:snap-grids="true"
     inkscape:measure-start="42.4166,343.075"
     inkscape:measure-end="153.448,361.789"
     inkscape:zoom="0.5"
     inkscape:cx="37.438927"
     inkscape:cy="29.210713"
     inkscape:window-x="0"
     inkscape:window-y="1"
     inkscape:window-maximized="1"
     inkscape:current-layer="svg2"
     inkscape:pagecheckerboard="false"
     inkscape:showpageshadow="true"
     showborder="true"
     showguides="true"
     inkscape:snap-to-guides="true"
     inkscape:guide-bbox="true">
    <sodipodi:guide
       position="329.05186,303.71722"
       orientation="1,0"
       id="guide31"
       inkscape:locked="false" />
    <sodipodi:guide
       position="106.9028,304.2073"
       orientation="1,0"
       id="guide33"
       inkscape:locked="false" />
  </sodipodi:namedview>
  <title
     id="title3852">KIIT Seal</title>
  <metadata
     id="metadata8">
    <rdf:RDF>
      <cc:Work
         rdf:about="">
        <dc:format>image/svg+xml</dc:format>
        <dc:type
           rdf:resource="http://purl.org/dc/dcmitype/StillImage" />
        <dc:title>KIIT Seal</dc:title>
      </cc:Work>
    </rdf:RDF>
  </metadata>
  <defs
     id="defs6" />
  <g
     transform="translate(15.920633,73.315306)"
     id="g3841"
     style="fill:#17d059;fill-opacity:1">
    <path
       d="m 14.5,194.5 10,26 47.5,-16 -12.5,-34 z"
       id="path3782"
       style="fill:#17d059;fill-opacity:1;stroke:none"
       inkscape:connector-curvature="0" />
    <path
       d="M 49.904509,261.29817 68.21233,281.23556 107.85541,245.75242 83.178769,218.85869 Z"
       id="path3784"
       style="fill:#17d059;fill-opacity:1;stroke:none"
       inkscape:connector-curvature="0" />
    <path
       d="m 108.5824,307.09228 23.02993,10.49581 25.26039,-49.41713 -31.53205,-13.46868 z"
       id="path3786"
       style="fill:#17d059;fill-opacity:1;stroke:none"
       inkscape:connector-curvature="0" />
    <path
       d="m 181.45411,326.40315 25.55745,0.26787 4.4745,-55.92894 -33.92636,-0.0204 z"
       id="path3788"
       style="fill:#17d059;fill-opacity:1;stroke:none"
       inkscape:connector-curvature="0" />
    <path
       d="m 258.8061,318.81747 22.93039,-10.75132 -15.42691,-52.43803 -31.08734,14.34063 z"
       id="path3790"
       style="fill:#17d059;fill-opacity:1;stroke:none"
       inkscape:connector-curvature="0" />
    <path
       d="m 322.52496,279.5888 17.39476,-20.1945 -31.44288,-41.20846 -24.85371,26.35419 z"
       id="path3792"
       style="fill:#17d059;fill-opacity:1;stroke:none"
       inkscape:connector-curvature="0" />
    <path
       d="m 366.77326,219.33833 9.61598,-25.01809 -44.54572,-24.53683 -13.76755,34.6037 z"
       id="path3794"
       style="fill:#17d059;fill-opacity:1;stroke:none"
       inkscape:connector-curvature="0" />
    <path
       d="m 333.12572,155.58548 49.67425,-5.83363 v -14.67247 h -49.14392 z"
       id="path3796"
       style="fill:#17d059;fill-opacity:1;stroke:none"
       inkscape:connector-curvature="0" />
    <path
       d="m 5.3587572,149.50185 49.6742518,5.83363 v -20.5061 H 5.3587572 Z"
       id="path3798"
       style="fill:#17d059;fill-opacity:1;stroke:none"
       inkscape:connector-curvature="0" />
  </g>
  <g
     transform="translate(15.920633,73.315306)"
     id="g3836">
    <path
       d="m 276,85 a 142,142 0 1 1 -284,-7e-6"
       transform="matrix(0.97573489,0,0,0.97573489,61.805879,52.062535)"
       id="path3813"
       style="fill:none;stroke:#17d059;stroke-width:10;stroke-linecap:butt;stroke-linejoin:round;stroke-miterlimit:4;stroke-dasharray:none;stroke-dashoffset:0;stroke-opacity:1"
       inkscape:connector-curvature="0" />
    <path
       d="m 276,85 a 142,142 0 1 1 -284,-7e-6"
       transform="matrix(0.79050408,0,0,0.79050408,89.074032,68.057152)"
       id="path3815"
       style="fill:none;stroke:#17d059;stroke-width:12.65015602;stroke-linecap:butt;stroke-linejoin:round;stroke-miterlimit:4;stroke-dasharray:none;stroke-dashoffset:0;stroke-opacity:1"
       inkscape:connector-curvature="0" />
    <path
       d="m 276,85 a 142,142 0 1 1 -284,-7e-6"
       transform="matrix(0.6346358,0,0,0.6346358,110.07709,82.055955)"
       id="path3817"
       style="fill:none;stroke:#17d059;stroke-width:15.75706863;stroke-linecap:butt;stroke-linejoin:round;stroke-miterlimit:4;stroke-dasharray:none;stroke-dashoffset:0;stroke-opacity:1"
       inkscape:connector-curvature="0" />
  </g>
  <g
     transform="translate(15.920633,73.315306)"
     id="g3823">
    <path
       d="M 141.45867,42.25 122.48254,76.390812 V 42.477416 H 90.982171 V 142.76783 h 31.500369 v -30.92856 l 15.1809,30.47373 h 35.80163 L 149.80816,91.940374 177.89283,42.25 Z m 4.17474,8.186973 h 20.49422 l -24.28944,42.526773 20.49422,41.844524 H 142.85025 L 122.10302,92.736331 Z m -46.206863,0.08528 H 115.42975 V 135.17783 H 99.426547 Z"
       id="path2987"
       style="fill:#17d059;fill-opacity:1;stroke:none"
       inkscape:connector-curvature="0" />
    <path
       d="m 212.5,30 a 16.75,16.75 0 1 1 -33.5,0 16.75,16.75 0 1 1 33.5,0 z"
       transform="translate(-5.25,29.75)"
       id="path3767"
       style="fill:#17d059;fill-opacity:1;stroke:none"
       inkscape:connector-curvature="0" />
    <path
       d="M 175.75,78.362219 V 142.25 H 207 V 78.362219 Z m 8.3125,7.545367 h 15.625 v 49.237654 h -15.625 z"
       id="path3771"
       style="fill:#17d059;fill-opacity:1;stroke:none"
       inkscape:connector-curvature="0" />
    <path
       d="m 247.49558,42.9675 v 30.332469 h 18.61514 l -0.36695,67.388411 h 30.24381 V 73.299969 h 17.14365 V 42.9675 Z m 8.92301,7.548547 h 50.25622 v 14.663761 h -17.75 V 133.47608 H 273.79359 V 65.179808 l -17.375,-0.222067 z"
       id="path3780"
       style="fill:#17d059;fill-opacity:1;stroke:none"
       inkscape:connector-curvature="0" />
    <path
       d="m 212.5,30 a 16.75,16.75 0 1 1 -33.5,0 16.75,16.75 0 1 1 33.5,0 z"
       transform="translate(30.75,29.75)"
       id="path3819"
       style="fill:#17d059;fill-opacity:1;stroke:none"
       inkscape:connector-curvature="0" />
    <path
       d="M 211.75,78.362219 V 142.25 H 243 V 78.362219 Z m 8.3125,7.545367 h 15.625 v 49.237654 h -15.625 z"
       id="path3821"
       style="fill:#17d059;fill-opacity:1;stroke:none"
       inkscape:connector-curvature="0" />
  </g>
  <path
     style="fill:#17d059;fill-opacity:1;stroke-width:1.27186394"
     d="M 122.32617 20.013672 C 113.7966 20.013672 106.92969 26.880579 106.92969 35.410156 L 106.92969 80.617188 C 106.92969 89.146764 113.7966 96.013672 122.32617 96.013672 L 313.65625 96.013672 C 322.18583 96.013672 329.05273 89.146764 329.05273 80.617188 L 329.05273 35.410156 C 329.05273 26.880579 322.18583 20.013672 313.65625 20.013672 L 122.32617 20.013672 z M 196.42969 33.589844 C 203.92969 33.589844 209.80469 35.735677 214.05469 40.027344 C 218.30469 44.31901 220.42969 50.246094 220.42969 57.808594 C 220.42969 65.35026 218.30469 71.266927 214.05469 75.558594 C 209.80469 79.85026 203.92969 81.996094 196.42969 81.996094 C 188.95052 81.996094 183.07552 79.85026 178.80469 75.558594 C 174.55469 71.266927 172.42969 65.35026 172.42969 57.808594 C 172.42969 50.246094 174.55469 44.31901 178.80469 40.027344 C 183.07552 35.735677 188.95052 33.589844 196.42969 33.589844 z M 245.64844 33.589844 C 248.21094 33.589844 250.84635 33.78776 253.55469 34.183594 C 256.26302 34.558594 259.0651 35.13151 261.96094 35.902344 L 261.96094 45.777344 C 259.39844 44.63151 256.89844 43.766927 254.46094 43.183594 C 252.02344 42.60026 249.72135 42.308594 247.55469 42.308594 C 244.67969 42.308594 242.55469 42.704427 241.17969 43.496094 C 239.80469 44.28776 239.11719 45.516927 239.11719 47.183594 C 239.11719 48.433594 239.57552 49.41276 240.49219 50.121094 C 241.42969 50.808594 243.11719 51.402344 245.55469 51.902344 L 250.67969 52.933594 C 255.86719 53.97526 259.55469 55.558594 261.74219 57.683594 C 263.92969 59.808594 265.02344 62.829427 265.02344 66.746094 C 265.02344 71.891927 263.49219 75.72526 260.42969 78.246094 C 257.38802 80.746094 252.73177 81.996094 246.46094 81.996094 C 243.5026 81.996094 240.53385 81.714844 237.55469 81.152344 C 234.57552 80.589844 231.59635 79.75651 228.61719 78.652344 L 228.61719 68.496094 C 231.59635 70.079427 234.47135 71.277344 237.24219 72.089844 C 240.03385 72.88151 242.72135 73.277344 245.30469 73.277344 C 247.92969 73.277344 249.9401 72.839844 251.33594 71.964844 C 252.73177 71.089844 253.42969 69.839844 253.42969 68.214844 C 253.42969 66.75651 252.95052 65.63151 251.99219 64.839844 C 251.05469 64.048177 249.16927 63.339844 246.33594 62.714844 L 241.67969 61.683594 C 237.01302 60.683594 233.59635 59.089844 231.42969 56.902344 C 229.28385 54.714844 228.21094 51.766927 228.21094 48.058594 C 228.21094 43.41276 229.71094 39.839844 232.71094 37.339844 C 235.71094 34.839844 240.02344 33.589844 245.64844 33.589844 z M 288.96094 33.589844 C 291.52344 33.589844 294.15885 33.78776 296.86719 34.183594 C 299.57552 34.558594 302.3776 35.13151 305.27344 35.902344 L 305.27344 45.777344 C 302.71094 44.63151 300.21094 43.766927 297.77344 43.183594 C 295.33594 42.60026 293.03385 42.308594 290.86719 42.308594 C 287.99219 42.308594 285.86719 42.704427 284.49219 43.496094 C 283.11719 44.28776 282.42969 45.516927 282.42969 47.183594 C 282.42969 48.433594 282.88802 49.41276 283.80469 50.121094 C 284.74219 50.808594 286.42969 51.402344 288.86719 51.902344 L 293.99219 52.933594 C 299.17969 53.97526 302.86719 55.558594 305.05469 57.683594 C 307.24219 59.808594 308.33594 62.829427 308.33594 66.746094 C 308.33594 71.891927 306.80469 75.72526 303.74219 78.246094 C 300.70052 80.746094 296.04427 81.996094 289.77344 81.996094 C 286.8151 81.996094 283.84635 81.714844 280.86719 81.152344 C 277.88802 80.589844 274.90885 79.75651 271.92969 78.652344 L 271.92969 68.496094 C 274.90885 70.079427 277.78385 71.277344 280.55469 72.089844 C 283.34635 72.88151 286.03385 73.277344 288.61719 73.277344 C 291.24219 73.277344 293.2526 72.839844 294.64844 71.964844 C 296.04427 71.089844 296.74219 69.839844 296.74219 68.214844 C 296.74219 66.75651 296.26302 65.63151 295.30469 64.839844 C 294.36719 64.048177 292.48177 63.339844 289.64844 62.714844 L 284.99219 61.683594 C 280.32552 60.683594 276.90885 59.089844 274.74219 56.902344 C 272.59635 54.714844 271.52344 51.766927 271.52344 48.058594 C 271.52344 43.41276 273.02344 39.839844 276.02344 37.339844 C 279.02344 34.839844 283.33594 33.589844 288.96094 33.589844 z M 131.36719 34.433594 L 163.83594 34.433594 L 163.83594 43.527344 L 143.39844 43.527344 L 143.39844 52.214844 L 162.61719 52.214844 L 162.61719 61.308594 L 143.39844 61.308594 L 143.39844 81.089844 L 131.36719 81.089844 L 131.36719 34.433594 z M 196.42969 42.308594 C 192.76302 42.308594 189.91927 43.66276 187.89844 46.371094 C 185.8776 49.079427 184.86719 52.891927 184.86719 57.808594 C 184.86719 62.704427 185.8776 66.50651 187.89844 69.214844 C 189.91927 71.923177 192.76302 73.277344 196.42969 73.277344 C 200.11719 73.277344 202.97135 71.923177 204.99219 69.214844 C 207.01302 66.50651 208.02344 62.704427 208.02344 57.808594 C 208.02344 52.891927 207.01302 49.079427 204.99219 46.371094 C 202.97135 43.66276 200.11719 42.308594 196.42969 42.308594 z "
     id="rect4537" />
</svg>
